<?xml version="1.0" encoding="UTF-8" standalone="no"?>
<!-- Created with Inkscape (http://www.inkscape.org/) -->

<svg
   width="279.01474mm"
   height="52.315269mm"
   viewBox="0 0 279.01474 52.315269"
   version="1.1"
   id="svg1"
   xml:space="preserve"
   inkscape:version="1.3.2 (091e20e, 2023-11-25, custom)"
   sodipodi:docname="MEOW.svg"
   xmlns:inkscape="http://www.inkscape.org/namespaces/inkscape"
   xmlns:sodipodi="http://sodipodi.sourceforge.net/DTD/sodipodi-0.dtd"
   xmlns="http://www.w3.org/2000/svg"
   xmlns:svg="http://www.w3.org/2000/svg"><sodipodi:namedview
     id="namedview1"
     pagecolor="#ffffff"
     bordercolor="#000000"
     borderopacity="0.25"
     inkscape:showpageshadow="2"
     inkscape:pageopacity="0.0"
     inkscape:pagecheckerboard="0"
     inkscape:deskcolor="#d1d1d1"
     inkscape:document-units="mm"
     showguides="false"
     inkscape:zoom="0.73463599"
     inkscape:cx="3741.9893"
     inkscape:cy="219.83676"
     inkscape:window-width="1920"
     inkscape:window-height="974"
     inkscape:window-x="-11"
     inkscape:window-y="-11"
     inkscape:window-maximized="1"
     inkscape:current-layer="g59"
     showgrid="false"><sodipodi:guide
       position="-749.61717,200.39158"
       orientation="0,-1"
       id="guide3"
       inkscape:locked="false" /><sodipodi:guide
       position="-690.33775,259.67101"
       orientation="1,0"
       id="guide4"
       inkscape:locked="false" /></sodipodi:namedview><defs
     id="defs1" /><g
     inkscape:label="Warstwa 1"
     inkscape:groupmode="layer"
     id="layer1"
     transform="translate(-825.57521,-21.347591)"><rect
       style="fill:#8f6bf8;fill-opacity:1;stroke:none;stroke-width:0.461391"
       id="rect32"
       width="279.01474"
       height="52.315262"
       x="825.5752"
       y="21.347591"
       inkscape:export-filename=".\banner.png"
       inkscape:export-xdpi="200"
       inkscape:export-ydpi="200" /><rect
       style="display:none;fill:#ff6a2c;fill-opacity:1;stroke:none;stroke-width:0.364273"
       id="rect39"
       width="25.976191"
       height="129.37161"
       x="1005.4313"
       y="-13.497433" /><rect
       style="display:none;fill:#4183ff;fill-opacity:1;stroke:none;stroke-width:0.364273"
       id="rect40"
       width="25.976191"
       height="129.37161"
       x="1045.9236"
       y="-13.497433" /><g
       id="g59"><path
         style="fill:#a78bfa;fill-opacity:1"
         d="m 905.57045,85.772458 c -0.15385,-0.397599 -0.11505,-0.7797 0.11634,-1.145843 0.31336,-0.495835 0.29154,-0.544748 -0.22411,-0.50232 -1.06807,0.08788 -1.29054,-0.144797 -1.10157,-1.152125 0.15678,-0.835682 0.13009,-0.900973 -0.24207,-0.592115 -0.23005,0.190925 -0.42223,0.481386 -0.42707,0.645469 -0.005,0.164083 -0.23229,0.566223 -0.50543,0.893645 -0.59337,0.711268 -2.39814,0.833693 -2.92535,0.198437 -0.18116,-0.218281 -0.60395,-0.396875 -0.93954,-0.396875 -0.74486,0 -1.47135,-0.673228 -1.27596,-1.182409 0.0788,-0.205339 0.44597,-0.571685 0.81594,-0.814101 0.66336,-0.434648 0.67087,-0.477944 0.54218,-3.124727 -0.10368,-2.1324 -0.32804,-3.287248 -1.09177,-5.619542 -0.5287,-1.614563 -0.96127,-3.200646 -0.96127,-3.524628 0,-2.048105 0.0892,-3.170678 0.2457,-4.218263 0.15655,-1.047585 -0.27268,-0.609451 -0.92541,-0.181767 -0.37147,0.243394 -0.81212,0.396959 -0.97924,0.341254 -0.16711,-0.0557 0.0718,-0.323178 0.53091,-0.594384 1.10263,-0.651336 0.81777,-1.018073 -0.62295,-0.802023 -1.47046,0.220508 -1.56622,-0.272483 -0.10101,-0.520028 1.23718,-0.209021 1.41816,-0.661459 0.26458,-0.661459 -0.43656,0 -0.79375,-0.119062 -0.79375,-0.264583 0,-0.145521 0.3433,-0.264583 0.76289,-0.264583 0.98072,0 1.1376,-0.572893 0.66053,-2.412058 -0.57327,-2.209983 -0.52104,-2.447233 0.49481,-2.247612 0.47294,0.09294 1.17531,0.400164 1.56082,0.682727 0.54121,0.396687 1.08318,0.503155 2.37852,0.467252 1.43448,-0.03976 1.7879,-0.151911 2.43875,-0.773897 0.81882,-0.782507 1.68822,-1.167543 1.97622,-0.875221 0.0982,0.09964 0.15538,1.182079 0.12712,2.405408 l -0.0514,2.224234 h 0.77899 c 0.42845,0 0.77899,0.119063 0.77899,0.264583 0,0.145521 -0.29063,0.264584 -0.64584,0.264584 -1.08513,0 -0.99808,0.452513 0.12148,0.631538 0.57944,0.09266 1.05353,0.296586 1.05353,0.453178 0,0.184639 -0.36479,0.223083 -1.03783,0.109373 -0.85499,-0.14445 -1.02705,-0.101944 -0.97668,0.241277 0.0336,0.229139 0.29229,0.591446 0.57481,0.805127 0.34374,0.259991 0.39353,0.391294 0.15053,0.396926 -0.72552,0.01681 0.1804,0.671746 1.44609,1.045462 0.69104,0.20404 1.96498,0.857846 2.83097,1.452904 3.31948,2.280945 5.33781,7.579491 4.56954,11.995985 -0.19442,1.117644 -0.19076,1.124479 0.60256,1.124479 0.54282,0 1.10045,0.285089 1.74304,0.891137 1.25948,1.187843 1.31876,2.516053 0.16058,3.597956 -1.03943,0.970971 -1.715,1.087202 -7.09513,1.220702 -4.54799,0.112851 -4.57336,0.110299 -4.80297,-0.483068 z m 9.37511,-2.845477 c -0.0899,-0.145521 -0.38759,-0.264583 -0.66146,-0.264583 -0.27386,0 -0.57152,0.119062 -0.66145,0.264583 -0.0957,0.154781 0.17884,0.264584 0.66145,0.264584 0.48262,0 0.75712,-0.109803 0.66146,-0.264584 z m -84.24826,1.4318 c -2.66332,-0.716058 -4.18923,-2.094203 -4.78118,-4.3182 -0.38904,-1.461602 -0.19609,-2.511234 0.83022,-4.516484 0.9518,-1.859685 2.57733,-3.782113 3.90859,-4.622501 2.94345,-1.85812 7.9252,-1.917565 12.0629,-0.143941 0.67704,0.290213 1.32692,0.527659 1.44418,0.527659 0.11726,0 0.29051,-0.412102 0.385,-0.915783 0.16493,-0.879123 0.20053,-0.903624 0.88935,-0.612038 0.39464,0.16706 1.08398,0.569581 1.53186,0.89449 1.14782,0.832675 3.41396,0.92101 4.63567,0.180701 1.57908,-0.956861 2.04857,-0.997718 2.24984,-0.195791 0.0973,0.387508 0.0114,1.317007 -0.19077,2.065553 -0.20219,0.748546 -0.30756,1.832438 -0.23417,2.408648 0.12421,0.975229 0.20629,1.062709 1.1872,1.26543 1.72892,0.357305 1.82788,0.809198 0.13686,0.624943 l -1.4552,-0.15856 1.16304,0.534025 c 1.30612,0.599721 1.30731,1.008727 0.002,0.553557 -1.3556,-0.472566 -1.49398,-0.33545 -0.50319,0.498575 1.02127,0.859676 0.61364,1.106721 -0.44809,0.271565 l -0.66385,-0.522186 -0.83309,0.630089 c -0.71686,0.542179 -2.2252,0.0883 -1.77725,1.127655 l 1.53039,0.68382 c 0.84172,0.3761 2.12571,0.828059 2.85331,1.004351 1.85729,0.450006 2.24896,0.699905 2.24896,1.434915 0,0.798338 -0.66147,1.167464 -1.78594,0.996625 -0.53352,-0.08106 -0.85989,-0.01882 -0.85989,0.16397 0,0.6103 -0.28836,0.77877 -1.22202,0.903087 -3.65209,0.486277 -3.09546,-0.839068 -6.20434,-1.072871 -0.77087,-0.05797 -0.45155,-0.01081 -1.87223,-0.159301 -0.83149,-0.08691 -1.94059,-0.398848 -2.46466,-0.6932 -1.23333,-0.692722 -1.36322,-0.680169 -2.40232,0.232168 -0.52088,0.457341 -1.42211,0.884909 -2.23076,1.058333 -1.8634,0.399627 -5.4014,0.335466 -7.13006,-0.129302 z m 37.94618,0.04116 c -2.09724,-0.412985 -3.38819,-1.061612 -4.39487,-2.20815 -0.80757,-0.919774 -0.82356,-0.989246 -0.70863,-3.079471 0.20502,-3.728594 2.1343,-6.616965 5.63267,-8.432779 1.44151,-0.748213 1.86045,-0.83384 4.55576,-0.93115 2.50891,-0.09058 3.2659,-0.01676 4.89159,0.477028 1.05783,0.321306 2.3809,0.817629 2.94015,1.10294 0.67089,0.342259 1.83166,-0.954621 2.32508,-1.062994 0.65966,-0.144885 0.76722,-0.0766 0.91204,0.578999 0.0903,0.40879 0.10913,2.696519 0.72678,3.351363 1.45206,1.539505 1.77255,2.314624 1.77255,4.286955 0,2.047608 -0.79872,3.267159 -2.32014,3.542571 -0.54293,0.09828 -1.30866,0.341378 -1.70161,0.54021 -0.9942,0.503056 -1.70901,0.451584 -2.32825,-0.167652 -0.29104,-0.291042 -0.57596,-0.529167 -0.63315,-0.529167 -0.31045,0 -0.37164,0.886653 -0.0921,1.334291 0.23993,0.384189 0.24856,0.640063 0.0331,0.981728 -0.25877,0.41037 -0.83618,0.465788 -5.15744,0.494996 -2.81491,0.01903 -5.53521,-0.09888 -6.45355,-0.279718 z m 77.12203,-0.207667 c -0.7879,-0.284937 -0.6526,-1.216755 0.2522,-1.736021 0.6577,-0.377488 0.8205,-0.694358 1.0583,-2.059888 0.5722,-3.28576 0.2384,-6.838411 -0.8362,-8.900126 -0.759,-1.456103 -0.8529,-2.791882 -0.3322,-4.72493 0.6478,-2.404405 0.739,-3.055417 0.5396,-3.850035 -0.1588,-0.632549 -0.2668,-0.684854 -1.154,-0.558624 -0.5384,0.0766 -1.1873,0.223272 -1.4419,0.32594 -0.2699,0.108798 -0.463,0.06783 -0.463,-0.09822 0,-0.156687 0.5655,-0.458788 1.2567,-0.671337 l 1.2568,-0.386453 -1.5214,-0.01843 c -0.8367,-0.01013 -1.5213,-0.137491 -1.5213,-0.283012 0,-0.14552 0.6619,-0.264583 1.4708,-0.264583 1.7784,0 1.6867,-0.409137 -0.1482,-0.661499 -0.7274,-0.100049 -1.3226,-0.305014 -1.3226,-0.455478 0,-0.268434 1.5833,-0.129409 2.4904,0.218671 0.2629,0.100866 0.42,0.01972 0.42,-0.216879 0,-0.207927 0.3539,-0.845744 0.7864,-1.41737 0.4325,-0.571626 0.7897,-1.242077 0.7937,-1.489891 0.011,-0.645836 0.5541,-1.814253 1.2363,-2.657681 l 0.588,-0.727003 0.5165,0.727003 c 0.2841,0.399851 0.6917,1.143721 0.9059,1.653044 0.3053,0.726293 0.6233,0.996897 1.4741,1.254534 0.9556,0.289375 1.1885,0.268797 1.956,-0.172798 0.4792,-0.27571 1.2582,-0.58182 1.7311,-0.680245 0.837,-0.174191 0.8599,-0.154942 0.8599,0.72327 0,0.496223 -0.2897,1.474515 -0.6438,2.173982 -0.8219,1.62344 -0.995,3.405523 -0.343,3.53109 0.2517,0.04847 0.4577,0.200735 0.4577,0.338358 0,0.137623 -0.2847,0.178777 -0.6326,0.09145 -0.8699,-0.218321 -1.0886,0.267454 -0.2852,0.633494 0.3593,0.16368 0.6532,0.426242 0.6532,0.583471 0,0.157229 -0.1345,0.20274 -0.2989,0.101135 -0.1764,-0.108997 -0.2521,-0.04436 -0.1848,0.157652 0.063,0.188313 0.6097,0.488714 1.2154,0.667558 4.3098,1.272523 7.42379,5.829525 7.48899,10.959405 l 0.019,1.465765 0.3987,-1.058333 c 0.6979,-1.852539 0.3484,-3.667948 -1.43939,-7.476771 -1.7691,-3.768801 -2.3369,-5.385737 -2.588,-7.369873 -0.3574,-2.82305 1.427,-6.308113 3.14129,-6.1354 1.3606,0.137076 1.4459,0.731258 0.3581,2.493649 -1.56199,2.530657 -1.36339,3.864504 1.4954,10.041914 0.8104,1.751264 1.616,3.750085 1.7902,4.441822 0.4422,1.756203 0.1681,4.146891 -0.6724,5.864879 -0.6774,1.384679 -2.5383,3.299155 -3.2067,3.299155 -0.1792,0 -0.61169,0.339844 -0.96119,0.75521 -1.2924,1.535933 -1.6036,1.619419 -6.1753,1.65657 -5.4552,0.04433 -5.1425,0.08444 -5.1425,-0.659592 0,-0.706433 0.3337,-1.043848 1.3707,-1.385933 l 0.7092,-0.233963 -0.7461,-0.742417 -0.7461,-0.742417 -0.479,1.522859 c -0.6968,2.215381 -1.0934,2.518613 -3.1685,2.422477 -0.9409,-0.04359 -1.947,-0.164713 -2.2359,-0.269164 z m -11.4633,-1.218835 c -0.4073,-0.450011 -0.3976,-0.59056 0.1431,-2.07509 0.5612,-1.541058 0.5654,-1.630351 0.1301,-2.770304 -0.4817,-1.261255 -2.0407,-3.130662 -3.04603,-3.652356 -0.60426,-0.313584 -0.60733,-0.308356 -0.19141,0.32642 1.07504,1.640772 -1.05429,2.949268 -2.32571,1.429155 -1.83017,-2.188135 -3.35817,-3.649878 -3.63591,-3.478229 -0.22708,0.140344 -0.26539,0.846509 -0.1377,2.538037 0.19889,2.634667 -0.032,3.402572 -1.02308,3.402572 -1.15203,0 -1.50408,-0.589566 -1.9749,-3.307292 -0.15127,-0.873125 -0.67486,-2.361406 -1.16355,-3.307292 -1.40263,-2.714865 -1.62935,-4.063899 -1.23964,-7.375963 0.42994,-3.654019 1.07619,-5.739057 2.63422,-8.499036 0.69826,-1.236927 1.35362,-2.606146 1.45637,-3.042708 0.10275,-0.436563 0.48723,-1.188524 0.8544,-1.671024 0.91512,-1.202574 0.56826,-1.371425 -0.70889,-0.345083 -0.58202,0.46773 -1.05823,0.734413 -1.05823,0.592629 0,-0.141784 0.44385,-0.623644 0.98633,-1.070801 1.03283,-0.85135 0.93575,-1.061146 -0.19258,-0.416138 -0.75431,0.431204 -1.05833,0.48649 -1.05833,0.192459 0,-0.112429 0.3985,-0.419023 0.88556,-0.681319 0.73885,-0.397897 0.86347,-0.5924 0.75228,-1.174075 -0.0733,-0.383445 -0.34715,-0.926745 -0.60856,-1.207333 -0.26141,-0.280589 -0.65215,-1.029215 -0.86831,-1.663614 -0.36785,-1.079576 -0.36134,-1.170409 0.10164,-1.41819 0.33574,-0.17968 0.91575,-0.16754 1.80527,0.03779 1.18114,0.272638 1.43335,0.243104 2.5531,-0.298957 0.68338,-0.330815 1.31004,-0.794575 1.39259,-1.030578 0.26694,-0.763108 1.41157,-2.148889 1.77496,-2.148889 0.42329,0 1.09415,1.345173 1.34388,2.694684 0.0992,0.536191 0.40253,1.175891 0.67393,1.421555 0.458,0.414475 0.5705,0.415876 1.5613,0.01944 1.42,-0.568175 1.3738,-0.06821 -0.057,0.613521 -0.6185,0.294737 -0.8864,0.488233 -0.5953,0.429989 1.8249,-0.365201 2.5135,-0.414599 2.5135,-0.180304 0,0.143198 -0.5372,0.340925 -1.1939,0.439394 -1.5376,0.230586 -1.801,0.64714 -0.4092,0.64714 0.5907,0 1.074,0.116737 1.074,0.259416 0,0.142679 -0.3475,0.218957 -0.7722,0.169507 -0.4248,-0.04945 -0.8814,-0.01736 -1.0148,0.07131 -0.3579,0.237879 -0.8416,2.389642 -0.5743,2.554818 0.5101,0.315257 2.1048,-0.875332 4.6627,-3.481185 1.4841,-1.511878 2.9129,-2.747046 3.175,-2.744818 1.5378,0.01307 1.6914,1.642989 0.2724,2.888916 -0.8924,0.783498 -2.5738,3.051447 -2.5738,3.471537 0,0.1036 0.2195,0.245777 0.4879,0.315949 0.3328,0.08705 0.4952,0.385233 0.5109,0.938555 0.02,0.712225 -0.2244,0.996368 -2.0092,2.333624 -1.1178,0.83746 -2.2007,1.76845 -2.4065,2.068866 -0.2058,0.300417 -0.9367,1.081993 -1.6243,1.736837 -0.7737,0.736868 -1.56658,1.872871 -2.0804,2.980789 l -0.83021,1.790165 0.69733,2.559659 c 0.66993,2.459097 0.72589,3.673033 0.24214,5.252992 -0.13555,0.442703 0.2049,0.852592 1.81284,2.182627 2.4471,2.024207 3.5562,3.399703 4.0467,5.018828 1.0051,3.317813 -1.4021,7.615819 -3.1708,5.661401 z M 833.18377,65.624882 c -1.53973,-0.482479 -2.33088,-1.07696 -2.98712,-2.244582 -0.68555,-1.219776 -0.75363,-2.911197 -0.18234,-4.530402 0.61954,-1.755958 0.50689,-4.203854 -0.2955,-6.421115 -1.6207,-4.478557 -1.7372,-5.114814 -1.58563,-8.660136 0.0778,-1.81901 0.26826,-4.497917 0.42332,-5.953125 0.1563,-1.466774 0.20982,-4.237563 0.12012,-6.217709 -0.12797,-2.824861 -0.0188,-4.993885 0.5218,-10.37127 0.37598,-3.739672 0.6836,-7.398092 0.6836,-8.129842 0,-1.12008 0.10253,-1.39762 0.6485,-1.75536 1.44505,-0.946819 2.61556,0.43921 2.24779,2.66168 -0.1204,0.7276 -0.22601,2.93451 -0.23468,4.90424 l -0.0158,3.581326 h 1.45521 1.45521 l -7.4e-4,-2.655286 c -4.1e-4,-1.4604 -0.13052,-3.71342 -0.28913,-5.0067 -0.26669,-2.17455 -0.2496,-2.40342 0.22722,-3.04271 0.68804,-0.922479 1.24494,-0.988259 1.99728,-0.23592 0.57049,0.5705 0.63925,0.92387 0.8008,4.11592 0.0972,1.92052 0.41821,5.36858 0.71336,7.662364 0.43587,3.387419 0.50521,4.965409 0.36929,8.40385 -0.10361,2.621102 -0.0513,5.240978 0.13743,6.879167 0.80503,6.988594 0.71242,8.173963 -0.98075,12.55322 -0.92976,2.404759 -0.97774,2.682851 -0.9839,5.703031 -0.004,1.74625 -0.10281,3.323829 -0.22054,3.50573 -0.27259,0.421173 -1.56541,0.429802 -1.98199,0.01323 -0.19034,-0.190342 -0.32586,-1.170521 -0.33838,-2.447396 -0.0115,-1.171443 -0.0896,-1.951302 -0.17355,-1.733021 -0.084,0.218281 -0.59526,1.11125 -1.13621,1.984375 -1.24336,2.006841 -1.44099,2.825715 -0.9235,3.826422 0.42551,0.822848 1.64377,1.328666 3.20685,1.331478 0.45123,8.11e-4 1.19537,0.132185 1.65365,0.291941 0.67329,0.234711 0.83323,0.436073 0.83323,1.049025 0,0.479174 -0.18849,0.859435 -0.51178,1.03245 -0.69095,0.369787 -3.34282,0.315717 -4.65314,-0.09487 z m 34.15904,-1.631162 c -0.49191,-0.491902 -0.49783,-0.533631 -0.1642,-1.157017 0.23078,-0.431216 0.0875,-0.489761 -1.51272,-0.618213 -1.05774,-0.08491 -2.46179,0.0053 -3.49607,0.224541 -0.95063,0.201536 -2.79999,0.36782 -4.10967,0.36952 -1.30969,0.0017 -3.59758,0.143792 -5.0842,0.315761 -2.21412,0.256124 -2.83618,0.248117 -3.43959,-0.04427 -0.40515,-0.196317 -0.88411,-0.331433 -1.06437,-0.300256 -0.57488,0.09943 -1.39205,-0.495561 -1.39205,-1.013575 0,-0.743333 1.24599,-1.595723 2.35078,-1.608179 1.21099,-0.01365 8.15275,-2.177269 8.68126,-2.705787 0.62885,-0.628842 0.0395,-0.720269 -1.09279,-0.169524 -1.21164,0.589349 -1.208,0.588665 -1.208,0.227326 0,-0.152636 0.50601,-0.517946 1.12448,-0.8118 l 1.12448,-0.53428 -1.10135,0.149769 c -0.60575,0.08237 -1.29036,0.222296 -1.52136,0.310941 -0.231,0.08864 -0.42,0.03396 -0.42,-0.121522 0,-0.155481 0.50601,-0.412758 1.12448,-0.571727 1.74648,-0.448911 1.75514,-0.481942 0.13229,-0.504224 -0.83675,-0.01149 -1.52136,-0.139951 -1.52136,-0.285471 0,-0.145521 0.56555,-0.266176 1.25677,-0.268123 l 1.25678,-0.0035 0.42777,-1.352128 c 0.30348,-0.959283 0.36307,-1.630881 0.20507,-2.311565 -0.23321,-1.004715 -0.0546,-2.679231 0.28572,-2.679231 0.23573,0 2.19867,1.304073 2.38873,1.586941 0.0728,0.108293 0.90384,0.251597 1.84684,0.318454 1.3019,0.0923 1.90685,0.01246 2.51354,-0.331747 0.43945,-0.249319 1.12641,-0.529057 1.5266,-0.621642 0.67025,-0.155068 0.7276,-0.105374 0.7276,0.630454 0,0.439335 0.0625,0.798791 0.13878,0.798791 0.0763,0 0.88,-0.465875 1.78593,-1.035278 2.37595,-1.493341 3.99391,-1.951814 6.46926,-1.833167 2.45221,0.117538 3.93029,0.751457 5.60099,2.402149 1.5405,1.522044 2.43823,3.368558 2.5984,5.344533 0.0715,0.88223 0.36567,2.108421 0.6537,2.724868 0.68762,1.471689 0.46016,2.47452 -0.79725,3.514872 -1.40662,1.163808 -3.79875,1.814922 -7.2713,1.979177 -8.97471,0.42451 -8.58294,0.425198 -9.02397,-0.01583 z m 41.21758,-12.490061 c -0.1756,-0.113871 -0.29313,-0.906725 -0.28376,-1.914178 0.0184,-1.973793 -0.58363,-3.414828 -1.4352,-3.435532 -0.0917,-0.0022 -0.21726,0.695784 -0.27913,1.551138 -0.14778,2.043046 -0.73273,2.942728 -1.91328,2.942728 -1.08818,0 -1.36107,-0.533362 -0.81409,-1.591122 0.83612,-1.616873 0.46823,-2.350723 -1.72166,-3.434245 -2.24744,-1.111999 -3.32513,-2.532615 -3.95634,-5.215253 -0.29928,-1.271916 -0.43143,-1.437694 -1.73055,-2.170873 -1.91043,-1.078178 -4.14707,-3.22379 -5.64096,-5.411386 l -1.23986,-1.815585 -3.04271,-0.876346 c -1.67349,-0.481991 -3.48536,-1.063962 -4.02639,-1.293269 -0.54103,-0.229308 -1.43728,-0.416923 -1.99165,-0.416923 -1.18817,0 -2.18404,-0.612644 -2.18404,-1.343592 0,-0.980139 0.98807,-1.127093 4.51171,-0.671015 1.79035,0.231731 3.29759,0.37892 3.34942,0.327085 0.20823,-0.208229 -3.43632,-2.281228 -4.01064,-2.281228 -0.33928,0 -0.89795,-0.230666 -1.24149,-0.51259 -0.50754,-0.416508 -0.57001,-0.60249 -0.33324,-0.992188 0.56576,-0.931216 2.15596,-0.7318 6.3232,0.792948 0.58208,0.212978 1.44529,0.469727 1.91823,0.570554 0.72389,0.154326 0.85963,0.106761 0.85822,-0.300722 -9.2e-4,-0.266224 -0.35383,-0.684412 -0.78425,-0.929308 -0.43333,-0.24655 -0.86282,-0.764968 -0.96238,-1.161635 -0.2404,-0.957836 0.18072,-2.070011 0.82773,-2.186041 0.28803,-0.0516 0.89098,-0.44405 1.33989,-0.872 0.45724,-0.43591 1.23664,-0.84633 1.77221,-0.93324 0.74173,-0.12037 1.11523,-0.39572 1.66629,-1.22842 0.66748,-1.00863 0.73206,-1.04348 1.07206,-0.5785 0.19898,0.27213 0.36179,0.7286 0.36179,1.01439 0,0.48662 0.0307,0.49181 0.48385,0.0817 0.26612,-0.24084 0.55104,-0.43788 0.63316,-0.43788 0.26049,0 0.52318,0.87678 0.75305,2.51354 0.12263,0.87312 0.29711,1.945752 0.38774,2.383618 0.0933,0.450696 -0.002,1.280723 -0.22001,1.913009 -0.30953,0.898429 -0.31919,1.171339 -0.0494,1.395272 0.18449,0.153111 0.8296,1.280515 1.43358,2.505341 1.08773,2.205828 1.13256,2.253434 4.72505,5.01737 1.9948,1.534728 4.22222,3.266411 4.94983,3.848186 1.71602,1.372088 5.2693,3.111151 7.05827,3.454493 1.83093,0.351394 3.06838,0.127935 4.57196,-0.825605 1.47917,-0.938066 1.91961,-0.966104 2.29328,-0.145988 0.36088,0.792041 0.0172,1.492887 -1.16092,2.367424 -2.4534,1.821187 -6.59183,1.627119 -10.44749,-0.489927 l -1.65365,-0.907975 v 1.80607 c 0,1.51138 0.0923,1.888311 0.56569,2.310098 0.94554,0.842485 1.2864,2.049574 1.2864,4.555565 0,1.939404 -0.0843,2.425056 -0.48386,2.786624 -0.5172,0.468066 -1.05077,0.549852 -1.53569,0.235393 z m 44.49472,-1.109846 c -1.3791,-1.523965 1.3017,-4.881649 4.9641,-6.217415 1.1278,-0.411313 2.0152,-0.783152 1.972,-0.826308 -0.043,-0.04316 -1.1473,-0.108006 -2.4537,-0.144112 -0.5335,0.2418 -2.1571,-0.408918 -2.406,0.0023 -0.2489,0.411238 -0.4731,0.499892 -0.6681,0.572004 -0.1952,0.07211 -0.5212,-0.03284 -1.0867,-0.38952 -1.7346,-1.136556 -0.844,-0.296839 -1.786,-0.110601 -0.3678,0.07272 -1.325,0.06654 -1.6468,-0.46425 -0.3397,-0.560326 0.4419,-1.191894 0.8553,-1.346122 1.1044,-0.412059 0.1069,-5.246716 -0.3791,-7.226162 -0.1965,-0.800365 -0.7473,-2.762811 -1.224,-4.360991 -0.8059,-2.701636 -0.847,-3.02135 -0.585,-4.550761 0.155,-0.904738 0.4526,-1.987392 0.6614,-2.405896 0.3662,-0.734157 0.3511,-0.777264 -0.4302,-1.225672 -0.8929,-0.512455 -0.9297,-0.491271 -2.0513,1.180599 -0.2387,0.355902 -0.5265,0.557753 -0.6395,0.448556 -0.113,-0.109197 0.1836,-0.682636 0.6591,-1.274308 0.4755,-0.591672 0.812,-1.128239 0.7479,-1.192371 -0.064,-0.06413 -0.6229,0.250185 -1.2418,0.698482 -1.408,1.01995 -1.6755,0.860425 -0.4142,-0.247011 1.0704,-0.939763 1.0326,-0.991273 -0.314,-0.428613 -0.527,0.220192 -1.0193,0.339254 -1.0939,0.264584 -0.2316,-0.231565 0.1548,-0.460638 1.6008,-0.949154 l 1.3943,-0.47102 0.1595,-1.43677 c 0.088,-0.79023 0.2411,-1.56872 0.3408,-1.72998 0.1,-0.16125 -0.061,-0.76878 -0.358,-1.35006 -0.2965,-0.58128 -0.5392,-1.18067 -0.5392,-1.33199 0,-0.42528 0.8387,-0.32639 1.8552,0.21872 1.3736,0.73668 2.0028,0.34846 2.2052,-1.36062 0.087,-0.73792 0.2724,-1.45517 0.4111,-1.59391 0.3612,-0.361189 2.0034,0.71978 2.8719,1.89045 0.3947,0.53191 1.2134,1.44336 1.8194,2.02544 1.2699,1.21983 1.6815,2.40373 1.6837,4.84317 0,2.497442 0.6495,3.637791 3.8624,6.80429 1.79139,1.765562 2.94559,3.13913 3.28769,3.912516 0.7177,1.622336 0.9173,3.937941 0.5349,6.204781 l -0.3187,1.889638 0.9478,0.94777 c 1.3469,1.346956 1.2408,2.713045 -0.3331,4.286939 -0.8012,0.801225 -2.2929,1.434656 -5.73059,2.433518 -2.5544,0.742189 -4.0053,1.733007 -4.7911,3.271654 -0.7184,1.406734 -1.5118,1.656713 -2.3431,0.738186 z M 852.96265,41.034981 c -0.32737,0.08258 -0.78383,0.02721 -1.10406,-0.294424 -0.28541,-0.286659 -0.54532,-0.658391 -0.54532,-0.859916 0,-0.466644 -1.00458,-2.446038 -1.48547,-2.92693 -0.53399,-0.533993 -0.71353,-1.503348 -0.51887,-2.80146 0.0943,-0.628623 -0.0145,-2.5609 -0.24166,-4.293948 -0.59245,-4.519422 -0.21376,-6.261027 1.86059,-8.557084 0.50302,-0.556783 0.91458,-1.192478 0.91458,-1.412648 0,-0.22017 0.47387,-1.34708 1.05305,-2.50424 2.19616,-4.38781 5.91414,-6.677969 10.8532,-6.685249 3.27676,-0.005 5.8371,1.306269 5.31465,2.721519 -0.30153,0.81683 -0.88426,0.85269 -2.88339,0.17742 -4.25909,-1.43865 -9.11171,0.6662 -10.91223,4.73324 -0.2808,0.63428 -0.45489,1.24329 -0.38687,1.35336 0.068,0.11006 0.5948,0.26331 1.17061,0.34054 2.7548,0.3695 6.56855,3.270919 7.7195,5.872833 0.29241,0.661046 0.61904,1.201903 0.72585,1.201903 0.10681,0 0.33685,-0.377919 0.51119,-0.83982 0.31577,-0.836562 0.31918,-0.837847 0.87885,-0.331353 0.30901,0.279656 0.72757,0.82894 0.93012,1.220632 0.28132,0.544004 0.59735,0.731579 1.33841,0.794375 0.80457,0.06818 1.11977,-0.06792 1.8469,-0.797445 0.48221,-0.483809 1.00452,-0.800687 1.16069,-0.704172 0.15819,0.09777 0.2583,0.809043 0.22605,1.606122 -0.0318,0.786853 0.0767,1.474907 0.11553,1.604053 0.16816,0.559695 0.23711,0.737624 0.50812,1.185898 0.18924,0.313023 0.1237,0.409122 1.12448,0.296319 0.79132,-0.08919 1.19487,-0.0337 1.19487,0.164314 0,0.164446 -0.32742,0.308393 -0.7276,0.319882 l -0.72761,0.02089 0.72761,0.265743 c 0.87259,0.3187 0.99413,0.869939 0.13229,0.600044 -1.33523,-0.418144 -1.38385,-0.417296 -0.8599,0.01499 0.29104,0.240124 0.70677,0.53857 0.92384,0.663213 0.21707,0.124643 0.3167,0.304598 0.22139,0.399901 -0.0953,0.0953 -0.48062,-0.0281 -0.85627,-0.274239 -0.66895,-0.438314 -0.69945,-0.429904 -1.48316,0.40906 -0.95871,1.026302 -0.99164,0.989557 2.38184,2.657745 2.87483,1.42161 4.00832,1.825348 5.90783,2.104317 1.59079,0.233628 2.29724,0.602879 2.29724,1.200735 0,0.59276 -0.79747,1.177127 -1.6064,1.177127 -0.42617,0 -0.77485,0.119063 -0.77485,0.264584 0,0.14552 -0.29654,0.221298 -0.65315,0.264583 -0.2879,0.03494 -0.71948,0.009 -1.16525,-0.111441 -0.12382,-0.03346 -1.67937,-0.314206 -3.48947,-0.548384 -1.8101,-0.234177 -4.23018,-0.657759 -5.37796,-0.941292 -1.14778,-0.283533 -2.40352,-0.451543 -2.77812,-0.516504 -1.51262,-0.262308 -2.77478,-0.518207 -4.12584,-1.055202 -1.52982,-0.600554 -3.1843,-2.182802 -3.57688,-2.63483 -0.39258,-0.452028 -0.61281,-0.872605 -0.96448,-1.469221 -0.077,-0.130554 -0.19731,-0.431653 -0.2639,-0.01867 -0.063,0.390571 -0.1921,0.803588 -0.54495,1.162913 -0.72445,0.737742 -0.13533,3.205443 0.85606,3.585877 0.25844,0.09917 0.392,0.397134 0.34052,0.759666 -0.0734,0.517119 -0.24174,0.596496 -1.26479,0.596496 -1.0458,0 -1.24877,-0.101925 -1.78371,-0.895716 -0.33199,-0.492643 -0.80579,-1.537073 -1.05289,-2.320955 -0.42039,-1.333627 -0.42091,-1.505646 -0.008,-2.676159 0.3155,-0.04904 1.21354,-5.065773 0.45289,-3.415264 -0.10261,0.789706 -0.26086,1.652661 -0.82618,2.712049 -1.21004,2.267557 -0.98077,4.671053 0.58033,6.083831 0.65452,0.592333 0.6827,1.414829 -0.0187,1.438256 -0.7014,0.02343 -0.93378,-0.170444 -1.26115,-0.08786 z m 80.15986,-4.198418 c -0.52,-0.520016 -0.3663,-1.490405 0.3059,-1.930814 0.3428,-0.224636 1.5037,-0.576876 2.5797,-0.782755 2.4583,-0.470382 2.8335,-0.616656 3.1636,-1.233392 0.3613,-0.675162 -0.057,-1.399152 -1.0439,-1.808085 -0.6873,-0.284691 -0.8774,-0.254414 -1.5569,0.247957 -0.8365,0.618427 -2.454,0.887025 -7.22709,1.200151 -2.73188,0.179214 -2.81693,0.167798 -3.50573,-0.470557 -0.74852,-0.69371 -0.92459,-1.614534 -0.37519,-1.96228 0.1819,-0.115137 0.92604,-0.274226 1.65365,-0.353533 l 1.32291,-0.144193 -1.07064,-0.566035 c -0.58885,-0.311319 -1.49659,-0.645945 -2.01721,-0.743612 -0.91211,-0.171114 -0.99011,-0.121359 -2.14288,1.366973 -0.65797,0.849503 -1.56056,1.889103 -2.00575,2.310222 -0.79968,0.756435 -0.83273,0.762819 -2.7396,0.529167 -1.71678,-0.210359 -1.93954,-0.302477 -2.0149,-0.833256 -0.0574,-0.403878 0.17178,-0.812599 0.70893,-1.264582 1.53226,-1.28931 2.16024,-5.415029 1.01658,-6.678759 -0.53527,-0.591466 -1.33976,-3.632469 -1.15146,-4.352549 0.12945,-0.49501 0.0966,-0.49013 -0.50512,0.0752 -0.35396,0.33253 -0.73334,0.51462 -0.84305,0.40466 -0.10971,-0.10997 0.12229,-0.4769 0.51557,-0.8154 0.86188,-0.74185 0.41874,-1.06416 -0.85339,-0.62069 -1.2029,0.41933 -1.25395,0.0803 -0.0851,-0.56495 l 1.01716,-0.56146 -0.99219,0.12882 c -1.16824,0.15167 -1.35116,-0.30852 -0.2131,-0.53613 0.97721,-0.19544 1.14536,-1.09636 0.48693,-2.60908 -0.25335,-0.58208 -0.46326,-1.45331 -0.46646,-1.93606 -0.005,-0.78741 0.0555,-0.85945 0.58951,-0.70018 0.32742,0.0977 1.08498,0.41627 1.68346,0.70804 0.86135,0.41994 1.20238,0.46937 1.63625,0.23717 0.30146,-0.16134 1.07713,-0.29334 1.72372,-0.29334 0.74422,0 1.30181,-0.15204 1.51948,-0.41432 0.39431,-0.47512 1.65983,-1.173179 2.12686,-1.173179 0.22867,0 0.27874,0.564459 0.18189,2.050519 -0.0735,1.12779 -0.0902,2.17042 -0.0372,2.31696 0.0531,0.1466 0.6469,0.22266 1.3202,0.16911 0.84983,-0.0676 1.16824,-0.008 1.0421,0.19658 -0.0999,0.16165 -0.50204,0.29574 -0.89364,0.29796 -0.39159,0.002 -0.89058,0.11947 -1.10886,0.26054 -0.28412,0.18361 -0.002,0.25763 0.99218,0.26053 0.76399,0.002 1.38907,0.12311 1.38907,0.26863 0,0.14552 -0.38696,0.2688 -0.8599,0.27396 l -0.85989,0.009 0.66145,0.38339 c 0.48701,0.28228 1.12696,0.34112 2.42648,0.22309 2.14394,-0.19474 4.82247,0.52098 6.50137,1.73721 1.9984,1.447587 3.23,4.428761 3.2388,7.839241 v 1.602728 l 1.071,0.472553 c 2.0365,0.898502 2.857,2.189474 2.523,3.969807 -0.3761,2.004692 -1.6056,2.803928 -5.5784,3.626286 -2.8326,0.586324 -2.8495,0.587271 -3.2544,0.182357 z"
         id="path30"
         sodipodi:nodetypes="sssssssssssssszssssssssssssssscsssssssssssssssssssssssssssssssssssssscsssscscssssssssssssssssssssssssssssssssssssssssssscsssssssscscssssssssssssscsccssssssssssssscccsssscssssssssssssssssssssssssssssssssssssssssssssscsssscssssccsssssssssssscccssssssssscsssssssssssssssssssssssssscssssssscsssssssssssssssssssssssssssscsssssssssssssssssssssssscssssssssscsssssscssszzcsssssssssssssssssccccsscssscssscssssccssssssssssssssssssssssssssssscsssssssssssssssssszsssssssssssszzsssssssssscsssssssssssssscssscsssssssssscscsccsssccsssccs" /><path
         style="fill:#a78bfa;fill-opacity:1"
         d="m 1054.4948,62.18226 c -0.4262,-0.0051 -0.115,-0.7797 0.1164,-1.145843 0.3133,-0.495835 0.2915,-0.544748 -0.2241,-0.50232 -1.0681,0.08788 -1.2906,-0.144797 -1.1016,-1.152125 0.1568,-0.835682 0.1301,-0.900973 -0.2421,-0.592115 -0.23,0.190925 -0.4222,0.481386 -0.427,0.645469 -0.01,0.164083 -0.2323,0.566223 -0.5055,0.893645 -0.5933,0.711268 -2.3981,0.833693 -2.9253,0.198437 -0.1812,-0.218281 -0.604,-0.396875 -0.9396,-0.396875 -0.7448,0 -1.4713,-0.673228 -1.2759,-1.182409 0.079,-0.205339 0.446,-0.571685 0.8159,-0.814101 0.6634,-0.434648 0.6709,-0.477944 0.5422,-3.124727 -0.1037,-2.1324 -0.328,-3.287248 -1.0918,-5.619542 -0.5287,-1.614563 -0.9612,-3.200646 -0.9612,-3.524628 0,-2.048105 0.089,-3.170678 0.2457,-4.218263 0.1565,-1.047585 -0.2727,-0.609451 -0.9254,-0.181767 -0.3715,0.243394 -0.8122,0.396959 -0.9793,0.341254 -0.1671,-0.0557 0.072,-0.323178 0.5309,-0.594384 1.1027,-0.651336 0.8178,-1.018073 -0.6229,-0.802023 -1.4705,0.220508 -1.5662,-0.272483 -0.101,-0.520028 1.2371,-0.209021 1.4181,-0.661459 0.2645,-0.661459 -0.4365,0 -0.7937,-0.119062 -0.7937,-0.264583 0,-0.145521 0.3433,-0.264583 0.7629,-0.264583 0.9807,0 1.1376,-0.572893 0.6605,-2.412058 -0.5733,-2.209983 -0.521,-2.447233 0.4948,-2.247612 0.473,0.09294 1.1753,0.400164 1.5608,0.682727 0.5413,0.396687 1.0832,0.503155 2.3786,0.467252 1.4344,-0.03976 1.7879,-0.151911 2.4387,-0.773897 0.8188,-0.782507 1.6882,-1.167543 1.9762,-0.875221 0.098,0.09964 0.1553,1.182076 0.1272,2.405408 l -0.051,2.224234 h 0.7789 c 0.4285,0 0.779,0.119063 0.779,0.264583 0,0.145521 -0.2906,0.264584 -0.6458,0.264584 -1.0851,0 -0.9981,0.452513 0.1215,0.631538 0.5794,0.09266 1.0535,0.296586 1.0535,0.453178 0,0.184639 -0.3648,0.223083 -1.0378,0.109373 -0.855,-0.14445 -1.0271,-0.101944 -0.9767,0.241277 0.034,0.229139 0.2923,0.591446 0.5748,0.805127 0.3437,0.259991 0.3935,0.391294 0.1505,0.396926 -0.7255,0.01681 0.1804,0.671746 1.4461,1.045462 0.6911,0.20404 1.965,0.857846 2.831,1.452904 3.3195,2.280945 5.3378,7.579491 4.5695,11.995985 -0.1944,1.117644 -0.1907,1.124479 0.6026,1.124479 0.5428,0 1.1004,0.285089 1.743,0.891137 1.2595,1.187843 1.3188,2.516053 0.1606,3.597956 -1.0394,0.970971 -1.715,1.087202 -7.0951,1.220702 -4.548,0.112851 -4.1668,-0.475433 -4.803,-0.483068 z m 9.3752,-2.845477 c -0.09,-0.145521 -0.3876,-0.264583 -0.6615,-0.264583 -0.2739,0 -0.5715,0.119062 -0.6615,0.264583 -0.096,0.154781 0.1789,0.264584 0.6615,0.264584 0.4826,0 0.7571,-0.109803 0.6615,-0.264584 z m -89.65065,1.972034 c -2.6633,-0.716058 -4.1892,-2.094203 -4.7812,-4.3182 -0.389,-1.461602 -0.1961,-2.511234 0.8302,-4.516484 0.9518,-1.859685 2.5774,-3.782113 3.9086,-4.622501 2.9435,-1.85812 7.9252,-1.917565 12.0629,-0.143941 0.6771,0.290213 1.3269,0.527659 1.4442,0.527659 0.1173,0 0.2905,-0.412102 0.385,-0.915783 0.1649,-0.879123 0.2005,-0.903624 0.8894,-0.612038 0.3946,0.16706 1.0839,0.569581 1.5318,0.89449 1.1478,0.832675 3.414,0.92101 4.6357,0.180701 1.5791,-0.956861 2.0486,-0.997718 2.2498,-0.195791 0.097,0.387508 0.011,1.317007 -0.1907,2.065553 -0.2022,0.748546 -0.3076,1.832438 -0.2342,2.408648 0.1242,0.975229 0.2063,1.062709 1.1872,1.26543 1.7289,0.357305 1.8279,0.809198 0.1368,0.624943 l -1.4552,-0.15856 1.1631,0.534025 c 1.3061,0.599721 1.3073,1.008727 0,0.553557 -1.3556,-0.472566 -1.494,-0.33545 -0.5032,0.498575 1.0213,0.859676 0.6136,1.106721 -0.4481,0.271565 l -0.6638,-0.522186 -0.8331,0.630089 c -0.7169,0.542179 -2.2252,0.0883 -1.7773,1.127655 l 1.5304,0.68382 c 0.8417,0.3761 2.1257,0.828059 2.8533,1.004351 1.8573,0.450006 2.24905,0.699905 2.24905,1.434915 0,0.798338 -0.66155,1.167464 -1.78605,0.996625 -0.5335,-0.08106 -0.8599,-0.01882 -0.8599,0.16397 0,0.6103 -0.2883,0.77877 -1.222,0.903087 -3.6521,0.486277 -3.0954,-0.839068 -6.2043,-1.072871 -0.7709,-0.05797 -0.4516,-0.01081 -1.8722,-0.159301 -0.8315,-0.08691 -1.9406,-0.398848 -2.4647,-0.6932 -1.2333,-0.692722 -1.3632,-0.680169 -2.4023,0.232168 -0.5209,0.457341 -1.4221,0.884909 -2.2308,1.058333 -1.8634,0.399627 -5.4014,0.335466 -7.13,-0.129302 z m 95.03085,18.769255 c -2.0973,-0.412985 -3.3882,-1.061612 -4.3949,-2.20815 -0.8076,-0.919774 -0.8236,-0.989246 -0.7086,-3.079471 0.205,-3.728594 2.1343,-6.616965 5.6326,-8.432779 1.4416,-0.748213 1.8605,-0.83384 4.5558,-0.93115 2.5089,-0.09058 3.2659,-0.01676 4.8916,0.477028 1.0578,0.321306 2.3809,0.817629 2.9401,1.10294 0.6709,0.342259 1.8317,-0.954621 2.3251,-1.062994 0.6597,-0.144885 0.7672,-0.0766 0.9121,0.578999 0.09,0.40879 0.1091,2.696519 0.7267,3.351363 1.4521,1.539505 1.7726,2.314624 1.7726,4.286955 0,2.047608 -0.7987,3.267159 -2.3201,3.542571 -0.543,0.09828 -1.3087,0.341378 -1.7017,0.54021 -0.9942,0.503056 -1.709,0.451584 -2.3282,-0.167652 -0.291,-0.291042 -0.576,-0.529167 -0.6332,-0.529167 -0.3104,0 -0.3716,0.886653 -0.092,1.334291 0.24,0.384189 0.2486,0.640063 0.033,0.981728 -0.2587,0.41037 -0.8361,0.465788 -5.1574,0.494996 -2.8149,0.01903 -5.5352,-0.09888 -6.4535,-0.279718 z m 25.4397,-19.475996 c -0.8376,0.01885 -0.6526,-1.216755 0.2522,-1.736021 0.6577,-0.377488 0.8205,-0.694358 1.0583,-2.059888 0.5722,-3.28576 0.2384,-6.838411 -0.8362,-8.900126 -0.759,-1.456103 -0.8529,-2.791882 -0.3322,-4.72493 0.6478,-2.404405 0.739,-3.055417 0.5396,-3.850035 -0.1588,-0.632549 -0.2668,-0.684854 -1.154,-0.558624 -0.5384,0.0766 -1.1873,0.223272 -1.4419,0.32594 -0.2699,0.108798 -0.463,0.06783 -0.463,-0.09822 0,-0.156687 0.5655,-0.458799 1.2567,-0.671337 l 1.2568,-0.386453 -1.5214,-0.01843 c -0.8367,-0.01013 -1.5213,-0.137491 -1.5213,-0.283012 0,-0.14552 0.6619,-0.264583 1.4708,-0.264583 1.7784,0 1.6867,-0.409137 -0.1482,-0.661499 -0.7274,-0.100049 -1.3226,-0.305014 -1.3226,-0.455478 0,-0.268434 1.5833,-0.129409 2.4904,0.218671 0.2629,0.100866 0.42,0.01972 0.42,-0.216879 0,-0.207927 0.3539,-0.845744 0.7864,-1.41737 0.4325,-0.571626 0.7897,-1.242077 0.7937,-1.489891 0.011,-0.645836 0.5541,-1.814253 1.2363,-2.657681 l 0.588,-0.727003 0.5165,0.727003 c 0.2841,0.399851 0.6917,1.143721 0.9059,1.653044 0.3053,0.726293 0.6233,0.996897 1.4741,1.254534 0.9556,0.289375 1.1885,0.268797 1.956,-0.172798 0.4792,-0.27571 1.2582,-0.58182 1.7311,-0.680245 0.837,-0.174191 0.8599,-0.154942 0.8599,0.72327 0,0.496223 -0.2897,1.474515 -0.6438,2.173982 -0.8219,1.62344 -0.995,3.405523 -0.343,3.53109 0.2517,0.04847 0.4577,0.200735 0.4577,0.338358 0,0.137623 -0.2847,0.178777 -0.6326,0.09145 -0.8699,-0.218321 -1.0886,0.267454 -0.2852,0.633494 0.3593,0.16368 0.6532,0.426242 0.6532,0.583471 0,0.157229 -0.1345,0.20274 -0.2989,0.101135 -0.1764,-0.108997 -0.2521,-0.04436 -0.1848,0.157652 0.063,0.188313 0.6097,0.488714 1.2154,0.667558 4.3098,1.272523 7.4225,5.829542 7.489,10.959405 l 0.019,1.465765 0.3987,-1.058333 c 0.6979,-1.852539 0.3484,-3.667948 -1.4394,-7.476771 -1.7691,-3.768801 -2.3369,-5.385737 -2.588,-7.369873 -0.3574,-2.82305 1.427,-6.308113 3.1413,-6.1354 1.3606,0.137076 1.4459,0.731258 0.3581,2.493649 -1.562,2.530657 -1.3634,3.864504 1.4954,10.041914 0.8104,1.751264 1.616,3.750085 1.7902,4.441822 0.4422,1.756203 0.1681,4.146891 -0.6724,5.864879 -0.6774,1.384679 -2.5383,3.299155 -3.2067,3.299155 -0.1792,0 -0.6117,0.339844 -0.9612,0.75521 -1.2924,1.535933 -1.6036,1.619419 -6.1753,1.65657 -5.4552,0.04433 -5.1425,0.08444 -5.1425,-0.659592 0,-0.706433 0.3337,-1.043831 1.3707,-1.385933 l 0.7092,-0.233963 -0.7461,-0.742417 -0.7461,-0.742417 -0.479,1.522859 c -0.6968,2.215381 -1.0934,2.518613 -3.1685,2.422477 -0.9409,-0.04359 -1.9287,-0.276074 -2.2359,-0.269164 z m -11.336,2.091856 c -0.6065,-0.02461 -0.3976,-0.59056 0.1431,-2.07509 0.5612,-1.541058 0.5654,-1.630351 0.1301,-2.770304 -0.4817,-1.261255 -2.0407,-3.130662 -3.046,-3.652356 -0.6043,-0.313584 -0.6074,-0.308356 -0.1914,0.32642 1.075,1.640772 -1.0543,2.949268 -2.3257,1.429155 -1.8302,-2.188135 -3.3582,-3.649878 -3.636,-3.478229 -0.227,0.140344 -0.2653,0.846509 -0.1377,2.538037 0.1989,2.634667 -0.032,3.402572 -1.023,3.402572 -1.1521,0 -1.5041,-0.589566 -1.9749,-3.307292 -0.1513,-0.873125 -0.6749,-2.361406 -1.1636,-3.307292 -1.4026,-2.714865 -1.6293,-4.063899 -1.2396,-7.375963 0.4299,-3.654019 1.0762,-5.739057 2.6342,-8.499036 0.6983,-1.236927 1.3536,-2.606146 1.4564,-3.042708 0.1027,-0.436563 0.4872,-1.188524 0.8544,-1.671024 0.9151,-1.202574 0.5682,-1.371425 -0.7089,-0.345083 -0.582,0.46773 -1.0583,0.734413 -1.0583,0.592629 0,-0.141784 0.4439,-0.623644 0.9864,-1.070801 1.0328,-0.85135 0.9357,-1.061146 -0.1926,-0.416138 -0.7543,0.431204 -1.0583,0.48649 -1.0583,0.192459 0,-0.112429 0.3985,-0.419023 0.8855,-0.681319 0.7389,-0.397897 0.8635,-0.5924 0.7523,-1.174075 -0.073,-0.383445 -0.3471,-0.926745 -0.6086,-1.207333 -0.2614,-0.280589 -0.6521,-1.029215 -0.8683,-1.663614 -0.3678,-1.079576 -0.3613,-1.170409 0.1017,-1.41819 0.3357,-0.17968 0.9157,-0.16754 1.8052,0.03779 1.1812,0.272638 1.4334,0.243104 2.5531,-0.298957 0.6834,-0.330815 1.3101,-0.794575 1.3926,-1.030578 0.267,-0.763108 1.4116,-2.148889 1.775,-2.148889 0.4233,0 1.0941,1.345173 1.3439,2.694684 0.099,0.536191 0.4025,1.175891 0.6739,1.421555 0.458,0.414475 0.5705,0.415876 1.5613,0.01944 1.42,-0.568175 1.3738,-0.06821 -0.057,0.613521 -0.6185,0.294737 -0.8864,0.488233 -0.5953,0.429989 1.8249,-0.365201 2.5135,-0.414599 2.5135,-0.180304 0,0.143198 -0.5372,0.340925 -1.1939,0.439394 -1.5376,0.230586 -1.801,0.64714 -0.4092,0.64714 0.5907,0 1.074,0.116737 1.074,0.259416 0,0.142679 -0.3475,0.218957 -0.7722,0.169507 -0.4248,-0.04945 -0.8814,-0.01736 -1.0148,0.07131 -0.3579,0.237879 -0.8416,2.389642 -0.5743,2.554818 0.5101,0.315257 2.1048,-0.875332 4.6627,-3.481185 1.4841,-1.511878 2.9129,-2.747046 3.175,-2.744818 1.5378,0.01307 1.6914,1.642989 0.2724,2.888916 -0.8924,0.783498 -2.5738,3.051447 -2.5738,3.471537 0,0.1036 0.2195,0.245777 0.4879,0.315949 0.3328,0.08705 0.4952,0.385233 0.5109,0.938555 0.02,0.712225 -0.2244,0.996368 -2.0092,2.333624 -1.1178,0.83746 -2.2007,1.76845 -2.4065,2.068866 -0.2058,0.300417 -0.9367,1.081993 -1.6243,1.736837 -0.7737,0.736868 -1.5666,1.872874 -2.0804,2.980789 l -0.8302,1.790165 0.6973,2.559659 c 0.67,2.459097 0.7259,3.673033 0.2422,5.252992 -0.1356,0.442703 0.2049,0.852592 1.8128,2.182627 2.4471,2.024207 3.5562,3.399703 4.0467,5.018828 1.0811,3.56862 -2.9586,5.669999 -3.1705,5.661398 z m -74.4141,42.548078 c 1.5823,0.31646 -2.3309,-1.07696 -2.9872,-2.24458 -0.6855,-1.21978 -0.7536,-2.9112 -0.1823,-4.53041 0.6195,-1.75595 0.5069,-4.20385 -0.2955,-6.42111 -1.6207,-4.47856 -1.7372,-5.11482 -1.5856,-8.66014 0.078,-1.819007 0.2682,-4.497914 0.4233,-5.953122 0.1563,-1.466774 0.2098,-4.237563 0.1201,-6.21771 -0.128,-2.824861 -0.019,-4.993885 0.5218,-10.37127 0.376,-3.739672 0.6836,-7.398092 0.6836,-8.129842 0,-1.120079 0.1025,-1.397619 0.6485,-1.755359 1.4451,-0.946819 2.6156,0.43921 2.2478,2.661679 -0.1204,0.7276 -0.2259,2.934511 -0.2347,4.90424 l -0.016,3.581326 h 1.4552 1.4552 l -7e-4,-2.655286 c -4e-4,-1.4604 -0.1305,-3.71342 -0.2891,-5.0067 -0.2667,-2.174549 -0.2496,-2.403419 0.2272,-3.042709 0.688,-0.922479 1.2449,-0.988259 1.9973,-0.23592 0.5705,0.5705 0.6392,0.92387 0.8008,4.115919 0.097,1.92052 0.4182,5.36858 0.7133,7.662364 0.4359,3.387419 0.5052,4.965409 0.3693,8.40385 -0.1036,2.621103 -0.051,5.240979 0.1375,6.879168 0.805,6.988592 0.7124,8.173962 -0.9808,12.553222 -0.9298,2.40476 -0.9777,2.68285 -0.9839,5.70303 0,1.74625 -0.1028,3.32383 -0.2205,3.50573 -0.2726,0.42117 -1.5654,0.4298 -1.982,0.0132 -0.1904,-0.19034 -0.3259,-1.17052 -0.3384,-2.4474 -0.011,-1.17144 -0.09,-1.9513 -0.1736,-1.73302 -0.084,0.21828 -0.5952,1.11125 -1.1362,1.98438 -1.2433,2.00684 -1.441,2.82571 -0.9235,3.82642 0.4255,0.82285 1.6438,1.32866 3.2069,1.33148 0.4512,8.1e-4 1.1954,0.13218 1.6536,0.29194 0.6733,0.23471 0.8333,0.43607 0.8333,1.04902 0,0.47918 -0.1885,0.85944 -0.5118,1.03245 -0.691,0.36979 -5.9997,-0.3642 -4.6532,-0.0949 z m 6.7872,-63.037709 c 0,-0.695653 -0.4978,-0.533631 -0.1642,-1.157017 0.2308,-0.431216 0.087,-0.489761 -1.5127,-0.618213 -1.0578,-0.08491 -2.4618,0.0053 -3.4961,0.224541 -0.9506,0.201536 -2.8,0.36782 -4.1097,0.36952 -1.3096,0.0017 -3.5975,0.143792 -5.0842,0.315761 -2.21415,0.256124 -2.83615,0.248117 -3.43955,-0.04427 -0.4052,-0.196317 -0.8842,-0.331433 -1.0644,-0.300256 -0.5749,0.09943 -1.3921,-0.495561 -1.3921,-1.013575 0,-0.743333 1.246,-1.595723 2.3508,-1.608179 1.211,-0.01365 8.15285,-2.177269 8.68135,-2.705787 0.6288,-0.628842 0.04,-0.720269 -1.0928,-0.169524 -1.2117,0.589349 -1.208,0.588665 -1.208,0.227326 0,-0.152636 0.506,-0.517896 1.1245,-0.8118 l 1.1244,-0.53428 -1.1013,0.149769 c -0.6058,0.08237 -1.2904,0.222296 -1.5214,0.310941 -0.231,0.08864 -0.42,0.03396 -0.42,-0.121522 0,-0.155481 0.506,-0.412758 1.1245,-0.571727 1.7465,-0.448911 1.7552,-0.481942 0.1323,-0.504224 -0.8367,-0.01149 -1.5214,-0.139951 -1.5214,-0.285471 0,-0.145521 0.5656,-0.266198 1.2568,-0.268123 l 1.2568,-0.0035 0.4278,-1.352128 c 0.3034,-0.959283 0.363,-1.630881 0.205,-2.311565 -0.2332,-1.004715 -0.055,-2.679231 0.2858,-2.679231 0.2357,0 2.1986,1.304073 2.3887,1.586941 0.073,0.108293 0.9038,0.251597 1.8468,0.318454 1.3019,0.0923 1.9069,0.01246 2.5136,-0.331747 0.4394,-0.249319 1.1264,-0.529057 1.5266,-0.621642 0.6702,-0.155068 0.7276,-0.105374 0.7276,0.630454 0,0.439335 0.062,0.798791 0.1387,0.798791 0.076,0 0.88,-0.465875 1.786,-1.035278 2.3759,-1.493341 3.9939,-1.951814 6.4692,-1.833167 2.4522,0.117538 3.9303,0.751457 5.601,2.402149 1.5405,1.522044 2.4383,3.368558 2.5984,5.344533 0.072,0.88223 0.3657,2.108421 0.6537,2.724868 0.6876,1.471689 0.4602,2.47452 -0.7972,3.514872 -1.4066,1.163808 -3.7988,1.814922 -7.2713,1.979177 -8.9747,0.42451 -9.024,0.607858 -9.024,-0.01583 z m 25.1906,-10.14905 c -0.209,0.01045 -0.2931,-0.906725 -0.2838,-1.914178 0.018,-1.973793 -0.5836,-3.414828 -1.4352,-3.435532 -0.092,-0.0022 -0.2172,0.695784 -0.2791,1.551138 -0.1478,2.043046 -0.7327,2.942728 -1.9133,2.942728 -1.0882,0 -1.3611,-0.533362 -0.8141,-1.591122 0.8361,-1.616873 0.4683,-2.350723 -1.7216,-3.434245 -2.2475,-1.111999 -3.3252,-2.532615 -3.9564,-5.215253 -0.2993,-1.271916 -0.4314,-1.437694 -1.7305,-2.170873 -1.9105,-1.078178 -4.1471,-3.223737 -5.641,-5.411385 l -1.2398,-1.815585 -3.0428,-0.876346 c -1.6734,-0.481991 -3.4853,-1.0639624 -4.0263,-1.2932694 -0.5411,-0.229308 -1.4373,-0.416923 -1.9917,-0.416923 -1.1882,0 -2.184,-0.612644 -2.184,-1.343592 0,-0.980139 0.988,-1.127093 4.5117,-0.671015 1.7903,0.231731 3.2976,0.37892 3.3494,0.327085 0.2082,-0.208229 -3.4363,-2.281228 -4.0106,-2.281228 -0.3393,0 -0.898,-0.230666 -1.2415,-0.51259 -0.5076,-0.416508 -0.57,-0.60249 -0.3333,-0.992188 0.5658,-0.931216 2.156,-0.7318 6.3232,0.792948 0.5821,0.212978 1.4453,0.469727 1.9183,0.570554 0.7238,0.154326 0.8596,0.106761 0.8582,-0.300722 -9e-4,-0.266224 -0.3539,-0.684412 -0.7843,-0.929308 -0.4333,-0.24655 -0.8628,-0.764968 -0.9624,-1.161635 -0.2404,-0.957836 0.1808,-2.07001096 0.8278,-2.18604096 0.288,-0.0516 0.891,-0.44405 1.3399,-0.872 0.4572,-0.43591004 1.2366,-0.84633004 1.7722,-0.93324004 0.7417,-0.12037 1.1152,-0.39572 1.6663,-1.22842 0.6674,-1.00863 0.732,-1.04348 1.072,-0.5785 0.199,0.27213 0.3618,0.7286 0.3618,1.01439 0,0.48662 0.031,0.49181 0.4839,0.0817 0.2661,-0.24084 0.551,-0.43788 0.6331,-0.43788 0.2605,0 0.5232,0.87678 0.7531,2.51354004 0.1226,0.87312 0.2971,1.94575196 0.3877,2.38361796 0.093,0.450696 0,1.280723 -0.22,1.913009 -0.3095,0.898429 -0.3192,1.171339 -0.049,1.395272 0.1845,0.153111 0.8296,1.280515 1.4336,2.505341 1.0877,2.2058284 1.1325,2.2534344 4.725,5.0173704 1.9948,1.534727 4.2223,3.26641 4.9499,3.848185 1.716,1.372088 5.2693,3.111151 7.0582,3.454493 1.831,0.351394 3.0684,0.127935 4.572,-0.825605 1.4792,-0.938066 1.9196,-0.966104 2.2933,-0.145988 0.3609,0.792041 0.017,1.492887 -1.1609,2.367424 -2.4534,1.821187 -6.5918,1.627064 -10.4475,-0.489927 l -1.6537,-0.907975 v 1.80607 c 0,1.51138 0.092,1.888311 0.5657,2.310098 0.9455,0.842485 1.2864,2.049574 1.2864,4.555565 0,1.939404 -0.084,2.425056 -0.4839,2.786624 -0.5172,0.468066 -0.9583,0.206528 -1.5356,0.235393 z m 61.0619,-5.251636 c -1.3791,-1.523965 1.3017,-4.881649 4.9641,-6.217415 1.1278,-0.411313 2.0152,-0.783152 1.972,-0.826308 -0.043,-0.04316 -1.1473,-0.108006 -2.4537,-0.144112 -0.5335,0.2418 -2.1571,-0.408918 -2.406,0.0023 -0.2489,0.411238 -0.4731,0.499892 -0.6681,0.572004 -0.1952,0.07211 -0.5212,-0.03284 -1.0867,-0.38952 -1.7346,-1.136556 -0.844,-0.296839 -1.786,-0.110601 -0.3678,0.07272 -1.325,0.06654 -1.6468,-0.46425 -0.3397,-0.560326 0.4419,-1.191894 0.8553,-1.346122 1.1044,-0.412059 0.1069,-5.246716 -0.3791,-7.226162 -0.1965,-0.8003645 -0.7473,-2.7628108 -1.224,-4.3609908 -0.8059,-2.701636 -0.847,-3.02135 -0.585,-4.550761 0.155,-0.90473804 0.4526,-1.98739202 0.6614,-2.40589602 0.3662,-0.73415698 0.3511,-0.77726398 -0.4302,-1.22567198 -0.8929,-0.512455 -0.9297,-0.491271 -2.0513,1.18059898 -0.2387,0.355902 -0.5265,0.557753 -0.6395,0.448556 -0.113,-0.109197 0.1836,-0.682636 0.6591,-1.27430798 0.4755,-0.591672 0.812,-1.128239 0.7479,-1.192371 -0.064,-0.06413 -0.6229,0.250185 -1.2418,0.698482 -1.408,1.01995 -1.6755,0.860425 -0.4142,-0.247011 1.0704,-0.939763 1.0326,-0.991273 -0.314,-0.428613 -0.527,0.220192 -1.0193,0.339254 -1.0939,0.264584 -0.2316,-0.231565 0.1548,-0.4606657 1.6008,-0.949154 l 1.3943,-0.47102 0.1595,-1.43677 c 0.088,-0.79023 0.2411,-1.56872 0.3408,-1.72998 0.1,-0.16125 -0.061,-0.76878 -0.358,-1.35006 -0.2965,-0.58128 -0.5392,-1.18067 -0.5392,-1.33199 0,-0.4252802 0.8387,-0.3263902 1.8552,0.21872 1.3736,0.73668 2.0028,0.34846 2.2052,-1.3606202 0.087,-0.73792 0.2724,-1.45517 0.4111,-1.59391 0.3612,-0.361189 2.0034,0.71978 2.8719,1.89045 0.3947,0.53191 1.2134,1.4433602 1.8194,2.0254402 1.2699,1.21983 1.6815,2.40373 1.6837,4.84317 0,2.497442 0.6495,3.63779098 3.8624,6.80429 1.7914,1.765562 2.9456,3.13913 3.2877,3.912516 0.7177,1.622336 0.9173,3.9379278 0.5349,6.2047808 l -0.3187,1.889638 0.9478,0.94777 c 1.3469,1.346956 1.2408,2.713045 -0.3331,4.286939 -0.8012,0.801225 -2.2929,1.434656 -5.7306,2.433518 -2.5544,0.742189 -4.0053,1.733007 -4.7911,3.271654 -0.7184,1.406734 -1.1058,0.676321 -2.3431,0.738186 z M 1025.117,77.05055 c -0.3273,0.08258 -0.7838,0.02721 -1.104,-0.294424 -0.2854,-0.286659 -0.5453,-0.658391 -0.5453,-0.859916 0,-0.466644 -1.0046,-2.446038 -1.4855,-2.92693 -0.534,-0.533993 -0.7135,-1.503348 -0.5189,-2.80146 0.094,-0.628623 -0.014,-2.560901 -0.2416,-4.293949 -0.5925,-4.519422 -0.2138,-6.261027 1.8606,-8.557084 0.503,-0.556783 0.9145,-1.192478 0.9145,-1.412648 0,-0.22017 0.4739,-1.34708 1.0531,-2.50424 2.1961,-4.387809 5.9141,-6.677968 10.8532,-6.685248 3.2767,-0.005 5.8371,1.306269 5.3146,2.721518 -0.3015,0.81683 -0.8842,0.85269 -2.8834,0.17742 -4.259,-1.438649 -9.1117,0.6662 -10.9122,4.73324 -0.2808,0.63428 -0.4549,1.24329 -0.3869,1.35336 0.068,0.11006 0.5948,0.26331 1.1707,0.34054 2.7548,0.3695 6.5685,3.270919 7.7195,5.872833 0.2924,0.661046 0.619,1.201903 0.7258,1.201903 0.1068,0 0.3369,-0.377919 0.5112,-0.83982 0.3158,-0.836562 0.3192,-0.837847 0.8788,-0.331353 0.3091,0.279656 0.7276,0.82894 0.9302,1.220632 0.2813,0.544004 0.5973,0.731579 1.3384,0.794375 0.8045,0.06818 1.1197,-0.06792 1.8469,-0.797445 0.4822,-0.483809 1.0045,-0.800687 1.1607,-0.704172 0.1582,0.09777 0.2583,0.809043 0.226,1.606122 -0.032,0.786853 0.077,1.474907 0.1155,1.604053 0.1682,0.559695 0.2372,0.737624 0.5082,1.185898 0.1892,0.313023 0.1237,0.409122 1.1244,0.296319 0.7914,-0.08919 1.1949,-0.0337 1.1949,0.164314 0,0.164446 -0.3274,0.308392 -0.7276,0.319882 l -0.7276,0.02089 0.7276,0.265743 c 0.8726,0.3187 0.9941,0.869939 0.1323,0.600044 -1.3352,-0.418144 -1.3838,-0.417296 -0.8599,0.01499 0.291,0.240124 0.7068,0.538571 0.9238,0.663214 0.2171,0.124643 0.3167,0.304598 0.2214,0.399901 -0.095,0.0953 -0.4806,-0.0281 -0.8562,-0.274239 -0.669,-0.438315 -0.6995,-0.429905 -1.4832,0.40906 -0.9587,1.026302 -0.9916,0.989557 2.3818,2.657745 2.8749,1.42161 4.0084,1.825348 5.9079,2.104317 1.5908,0.233628 2.2972,0.602879 2.2972,1.200735 0,0.59276 -0.7975,1.177127 -1.6064,1.177127 -0.4262,0 -0.7748,0.119063 -0.7748,0.264584 0,0.14552 -0.2966,0.221298 -0.6532,0.264583 -0.2879,0.03494 -0.7195,0.009 -1.1652,-0.111441 -0.1239,-0.03346 -1.6794,-0.314206 -3.4895,-0.548384 -1.8101,-0.234177 -4.2302,-0.657759 -5.378,-0.941292 -1.1477,-0.283533 -2.4035,-0.451543 -2.7781,-0.516504 -1.5126,-0.262308 -2.7748,-0.518207 -4.1258,-1.055202 -1.5298,-0.600554 -3.1843,-2.182802 -3.5769,-2.63483 -0.3926,-0.452028 -0.6128,-0.872605 -0.9645,-1.469221 -0.077,-0.130554 -0.1973,-0.431653 -0.2639,-0.01867 -0.063,0.390571 -0.1921,0.803588 -0.5449,1.162913 -0.7245,0.737742 -0.1354,3.205443 0.856,3.585877 0.2585,0.09917 0.392,0.397134 0.3405,0.759666 -0.073,0.517119 -0.2417,0.596496 -1.2647,0.596496 -1.0458,0 -1.2488,-0.101925 -1.7838,-0.895716 -0.3319,-0.492643 -0.8057,-1.537073 -1.0528,-2.320955 -0.4204,-1.333627 -0.421,-1.505646 -0.01,-2.676159 0.3155,-0.04904 1.2135,-5.065774 0.4528,-3.415265 -0.1026,0.789706 -0.2608,1.652661 -0.8261,2.71205 -1.2101,2.267557 -0.9808,4.671053 0.5803,6.083831 0.6545,0.592333 0.6827,1.414829 -0.019,1.438256 -0.7014,0.02343 -0.9338,-0.170444 -1.2612,-0.08786 z m 37.9604,-41.323748 c 1.5853,0.301203 -2.3309,-1.07696 -2.9872,-2.24458 -0.6855,-1.21978 -0.7536,-2.9112 -0.1823,-4.530407 0.6195,-1.75595 0.5069,-4.20385 -0.2955,-6.42111 -1.6207,-4.478561 -1.7372,-5.114821 -1.5856,-8.660141 0.078,-1.819007 0.2682,-4.4979136 0.4233,-5.9531216 0.1563,-1.466774 0.2098,-4.237563 0.1201,-6.217711 -0.128,-2.824861 -0.019,-4.993885 0.5218,-10.37127 0.376,-3.7396724 0.6836,-7.3980924 0.6836,-8.1298434 0,-1.120079 0.1025,-1.397619 0.6485,-1.755359 1.4451,-0.946819 2.6156,0.43921 2.2478,2.66168 -0.1204,0.7276 -0.2259,2.934511 -0.2347,4.90424 l -0.016,3.5813264 h 1.4552 1.4552 l -7e-4,-2.6552864 c -4e-4,-1.4604 -0.1305,-3.71342 -0.2891,-5.0067 -0.2667,-2.17455 -0.2496,-2.40342 0.2272,-3.04271 0.688,-0.922479 1.2449,-0.988259 1.9973,-0.23592 0.5705,0.5705 0.6392,0.92387 0.8008,4.11592 0.097,1.92052 0.4182,5.3685804 0.7133,7.6623644 0.4359,3.387419 0.5052,4.965409 0.3693,8.40385 -0.1036,2.621104 -0.051,5.24098 0.1375,6.879169 0.805,6.9885916 0.7124,8.1739616 -0.9808,12.5532226 -0.9298,2.40476 -0.9777,2.68285 -0.9839,5.70303 0,1.74625 -0.1028,3.32383 -0.2205,3.50573 -0.2726,0.421167 -1.5654,0.429797 -1.982,0.0132 -0.1904,-0.190337 -0.3259,-1.170517 -0.3384,-2.447397 -0.011,-1.17144 -0.09,-1.9513 -0.1736,-1.73302 -0.084,0.21828 -0.5952,1.11125 -1.1362,1.98438 -1.2433,2.00684 -1.441,2.825707 -0.9235,3.826417 0.4255,0.82285 1.6438,1.32866 3.2069,1.33148 0.4512,8.1e-4 1.1954,0.13218 1.6536,0.29194 0.6733,0.23471 0.8333,0.43607 0.8333,1.04902 0,0.47918 -0.1885,0.85944 -0.5118,1.03245 -0.691,0.36979 -6.0022,-0.351216 -4.6532,-0.0949 z"
         id="path36"
         sodipodi:nodetypes="sssssssssssssszssssssssssssssscsssssssssssssssssssssssssssssssssssssscsssscscssssssssssssssssssssssssssssssssssssssssssscsssssssscscssssssssssssscsccssssssssssssscccsssscssssssssssssssssssssssssssssssssssssssssssssscsssscsssssssssssssssscccssssssssscsssssssssssssssssssssssssscssssssscsssssssssssssssssscssssssssscsssssssssssssssssssssssscssssssssscsssssczssszzcsssssssssssssssssccccsscssscssscssssczssssssssssssssssssssssssssssscsssssssssssssssssszsssssssssssszzssssscssssssscccsssscsscscssccssssssss" /><path
         d="m 980.52004,37.756079 c 0.52,-0.520016 0.3663,-1.490405 -0.3059,-1.930814 -0.3428,-0.224636 -1.5037,-0.576876 -2.5797,-0.782755 -2.4583,-0.470382 -2.8335,-0.616656 -3.1636,-1.233392 -0.3613,-0.675162 0.057,-1.399152 1.0439,-1.808085 0.6873,-0.284691 0.8774,-0.254414 1.5569,0.247957 0.8365,0.618427 2.454,0.887025 7.2271,1.200151 2.7319,0.179214 2.8169,0.167798 3.5057,-0.470557 0.7485,-0.69371 0.9246,-1.614534 0.3752,-1.96228 -0.1819,-0.115137 -0.926,-0.274232 -1.6536,-0.353533 l -1.323,-0.144193 1.0707,-0.566035 c 0.58882,-0.311284 1.4966,-0.645945 2.0172,-0.743612 0.9121,-0.171114 0.9901,-0.121359 2.1429,1.366973 0.6579,0.849503 1.5605,1.889103 2.0057,2.310222 0.7997,0.756435 0.8328,0.762819 2.7396,0.529167 1.7168,-0.210359 1.9396,-0.302477 2.0149,-0.833256 0.057,-0.403878 -0.1718,-0.812599 -0.7089,-1.264582 -1.5323,-1.28931 -2.1602,-5.415029 -1.0166,-6.678759 0.5353,-0.591466 1.3398,-3.632469 1.1515,-4.352549 -0.1295,-0.49501 -0.097,-0.49013 0.5051,0.0752 0.354,0.33253 0.7333,0.51462 0.843,0.40466 0.1098,-0.10997 -0.1222,-0.4769 -0.5155,-0.8154 -0.8619,-0.74185 -0.4188,-1.06416 0.8534,-0.62069 1.2029,0.41933 1.25392,0.08026 0.085,-0.56495 l -1.0172,-0.56146 0.9922,0.12882 c 1.1682,0.15167 1.3512,-0.308521 0.2131,-0.536131 -0.9772,-0.19544 -1.1454,-1.09636 -0.4869,-2.60908 0.2533,-0.58208 0.4632,-1.45331 0.4664,-1.93606 0,-0.78741 -0.055,-0.85945 -0.5895,-0.70018 -0.3274,0.0977 -1.085,0.41627 -1.6834,0.70804 -0.8614,0.41994 -1.2024,0.46937 -1.6363,0.23717 -0.3015,-0.16134 -1.0771,-0.29334 -1.7237,-0.29334 -0.7442,0 -1.3018,-0.15204 -1.5195,-0.41432 -0.3943,-0.47512 -1.6598,-1.173179 -2.1269,-1.173179 -0.2286,0 -0.2787,0.564459 -0.1818,2.050519 0.073,1.12779 0.09,2.17042 0.037,2.31696 -0.053,0.1466 -0.6469,0.22266 -1.3202,0.16911 -0.8499,-0.0676 -1.1683,-0.008 -1.0421,0.19658 0.1,0.16165 0.502,0.29574 0.8936,0.29796 0.3916,0.002 0.8906,0.11947 1.1089,0.26054 0.2841,0.18361 0,0.25763 -0.9922,0.26053 -0.764,0.002 -1.3891,0.12311 -1.3891,0.26863 0,0.14552 0.387,0.2688 0.8599,0.27396 l 0.8599,0.009 -0.6615,0.38339 c -0.48701,0.282261 -1.1269,0.341121 -2.4264,0.223091 -2.144,-0.194741 -4.8225,0.52098 -6.5014,1.73721 -1.9984,1.447587 -3.23,4.428761 -3.2388,7.839241 v 1.602728 l -1.071,0.472553 c -2.03648,0.898548 -2.857,2.189474 -2.523,3.969807 0.3761,2.004692 1.6056,2.803928 5.5784,3.626286 2.8326,0.586324 2.8495,0.587271 3.2544,0.182357 z"
         style="fill:#a78bfa;fill-opacity:1"
         id="path1-9" /><g
         id="g60"
         transform="translate(62.938351)"><rect
           style="fill:#6c9fff;fill-opacity:0.285473;stroke:none;stroke-width:0.726176"
           id="rect58"
           width="103.22959"
           height="129.37161"
           x="850.52942"
           y="-13.497433" /><g
           id="g58"
           transform="matrix(0.36129373,0,0,0.36129373,658.27538,-144.04146)"
           style="fill:#ffffff"
           inkscape:export-filename="logo-text-w.png"
           inkscape:export-xdpi="100"
           inkscape:export-ydpi="100"><text
             xml:space="preserve"
             style="font-size:19.7333px;line-height:1;text-align:start;letter-spacing:2.26408px;text-anchor:start;fill:#ffffff;fill-opacity:1;stroke:none;stroke-width:15.9818;stroke-linecap:round;stroke-linejoin:round;stroke-dasharray:none"
             x="647.36304"
             y="496.61081"
             id="text51"><tspan
               sodipodi:role="line"
               id="tspan45"
               style="font-style:normal;font-variant:normal;font-weight:600;font-stretch:normal;font-size:19.7333px;line-height:1;font-family:Bahnschrift;-inkscape-font-specification:'Bahnschrift Semi-Bold';text-align:start;letter-spacing:2.26408px;text-anchor:start;fill:#ffffff;stroke:none;stroke-width:15.9818;stroke-dasharray:none"
               x="647.36304"
               y="496.61081"><tspan
   style="font-style:normal;font-variant:normal;font-weight:bold;font-stretch:normal;font-size:24.6767px;line-height:1;font-family:Bahnschrift;-inkscape-font-specification:'Bahnschrift Bold';fill:#ffffff;stroke-width:15.9818"
   id="tspan44"
   dy="0">M</tspan>onitoring &amp; </tspan><tspan
               sodipodi:role="line"
               style="font-style:normal;font-variant:normal;font-weight:600;font-stretch:normal;font-size:19.7333px;line-height:1;font-family:Bahnschrift;-inkscape-font-specification:'Bahnschrift Semi-Bold';text-align:start;letter-spacing:2.26408px;text-anchor:start;fill:#ffffff;stroke:none;stroke-width:15.9818;stroke-dasharray:none"
               x="647.36304"
               y="521.28754"
               id="tspan47"><tspan
   style="font-weight:bold;font-size:24.6767px;line-height:1;fill:#ffffff;stroke-width:15.9818"
   id="tspan46">E</tspan>valuation of </tspan><tspan
               sodipodi:role="line"
               style="font-style:normal;font-variant:normal;font-weight:600;font-stretch:normal;font-size:19.7333px;line-height:1;font-family:Bahnschrift;-inkscape-font-specification:'Bahnschrift Semi-Bold';text-align:start;letter-spacing:2.26408px;text-anchor:start;fill:#ffffff;stroke:none;stroke-width:15.9818;stroke-dasharray:none"
               x="647.36304"
               y="545.96423"
               id="tspan49"><tspan
   style="font-weight:bold;font-size:24.6767px;line-height:1;fill:#ffffff;stroke-width:15.9818"
   id="tspan48">O</tspan>nline </tspan><tspan
               sodipodi:role="line"
               style="font-style:normal;font-variant:normal;font-weight:600;font-stretch:normal;font-size:19.7333px;line-height:1;font-family:Bahnschrift;-inkscape-font-specification:'Bahnschrift Semi-Bold';text-align:start;letter-spacing:2.26408px;text-anchor:start;fill:#ffffff;stroke:none;stroke-width:15.9818;stroke-dasharray:none"
               x="647.36304"
               y="570.64093"
               id="tspan51"><tspan
   style="font-weight:bold;font-size:24.6767px;line-height:1;fill:#ffffff;stroke-width:15.9818"
   id="tspan50">W</tspan>riting</tspan></text><g
             id="g57"
             transform="translate(535.53458,326.9268)"
             style="fill:#ffffff"><g
               id="g56"
               transform="translate(-75.378436,81.831032)"
               style="fill:#ffffff"><path
                 id="path51"
                 style="fill:#ffffff"
                 d="m 134.36698,65.586603 c -3.02878,4.16e-4 -6.05793,0.171293 -7.63623,0.511597 -5.68428,1.225613 -10.91764,3.498546 -13.44776,5.840987 -3.70067,3.426177 -4.39533,7.581845 -1.67276,10.004041 2.60408,2.316781 6.38449,1.915568 11.95947,-1.268657 4.18587,-2.390813 7.15098,-3.339295 11.9662,-3.827673 8.16924,-0.828559 16.12546,2.119066 20.70881,7.6724 1.44582,1.751788 2.86537,3.94248 2.67684,4.13101 -0.056,0.056 -0.68098,-0.07282 -1.38854,-0.28577 -1.66515,-0.50111 -4.90135,-0.49444 -6.90139,0.01396 -5.30112,1.34752 -9.14435,4.70806 -12.53825,10.96367 -0.74633,1.375632 -1.56165,2.727572 -1.81178,3.003952 -1.23822,1.36822 -3.25723,1.63392 -4.49585,0.59169 -1.45358,-1.2231 -2.45798,-4.372292 -3.50676,-10.991572 -0.62393,-3.93791 -1.93193,-6.614587 -3.23185,-6.614587 -1.32509,0 -3.4819,2.093967 -4.75113,4.612117 -0.29847,0.59216 -0.57686,1.11532 -0.61856,1.16272 -0.0417,0.04743 -1.36645,-0.11711 -2.94401,-0.36586 -2.17957,-0.34368 -3.77234,-0.41637 -6.63319,-0.30231 l -3.76463,0.14986 -0.28525,-1.10691 c -0.51021,-1.98207 -0.84621,-2.938151 -1.46968,-4.18269 -0.95868,-1.913635 -1.72658,-2.024548 -3.39204,-0.489375 -2.023698,1.865375 -3.978045,6.379385 -5.227074,12.074195 -0.767054,3.497322 -0.83699,10.935052 -0.136426,14.509712 1.561549,7.96782 5.21443,14.92848 10.76369,20.50986 6.04819,6.08321 13.21284,9.85937 21.29896,11.22567 2.90503,0.49088 9.7442,0.50246 12.70827,0.0217 2.5745,-0.41758 5.06608,-1.08941 7.45019,-1.9849 l 14.95981,25.91005 a 6.5,6.5 0 0 0 8.87904,2.37918 6.5,6.5 0 0 0 2.37867,-8.87904 l -14.97635,-25.93899 c 6.82742,-5.65817 11.71549,-13.58221 13.46843,-22.62497 4.08018,-21.048122 -9.50763,-41.332756 -30.75626,-45.915547 -1.57587,-0.339865 -4.60384,-0.509945 -7.63261,-0.50953 z m -28.80031,33.617585 c 0.12182,-0.0012 0.23247,0.0097 0.32556,0.03307 1.73047,0.43432 2.42375,2.754382 1.18649,3.971342 -0.84635,0.83246 -1.77571,0.9934 -2.79311,0.48421 -1.73228,-0.86701 -1.69533,-3.35784 0.0625,-4.192002 0.38766,-0.18397 0.85306,-0.29312 1.21853,-0.29662 z m 12.66383,0.15038 c 1.05751,0 2.38125,1.246162 2.38125,2.241722 0,0.8806 -0.64321,2.14202 -1.202,2.35645 -1.7627,0.67641 -3.5605,-0.3802 -3.5605,-2.0929 0,-1.26555 1.17833,-2.505272 2.38125,-2.505272 z" /><g
                 id="g55"
                 style="fill:#ffffff"><path
                   style="color:#000000;fill:#ffffff;stroke-linecap:round;stroke-linejoin:round;-inkscape-stroke:none"
                   d="m 142.83246,131.11091 26.63001,46.12454"
                   id="path52" /></g></g></g></g></g></g></g></svg>
