<?xml version="1.0" encoding="UTF-8" standalone="no"?>
<!-- Created with Inkscape (http://www.inkscape.org/) -->

<svg
   width="114.06549mm"
   height="114.06549mm"
   viewBox="0 0 114.06549 114.06549"
   version="1.1"
   id="svg1"
   xml:space="preserve"
   inkscape:version="1.3.2 (091e20e, 2023-11-25, custom)"
   sodipodi:docname="MEOW.svg"
   xmlns:inkscape="http://www.inkscape.org/namespaces/inkscape"
   xmlns:sodipodi="http://sodipodi.sourceforge.net/DTD/sodipodi-0.dtd"
   xmlns="http://www.w3.org/2000/svg"
   xmlns:svg="http://www.w3.org/2000/svg"><sodipodi:namedview
     id="namedview1"
     pagecolor="#ffffff"
     bordercolor="#000000"
     borderopacity="0.25"
     inkscape:showpageshadow="2"
     inkscape:pageopacity="0.0"
     inkscape:pagecheckerboard="0"
     inkscape:deskcolor="#d1d1d1"
     inkscape:document-units="mm"
     showguides="false"
     inkscape:zoom="0.50164072"
     inkscape:cx="2159.9124"
     inkscape:cy="1906.7431"
     inkscape:window-width="1920"
     inkscape:window-height="974"
     inkscape:window-x="-11"
     inkscape:window-y="-11"
     inkscape:window-maximized="1"
     inkscape:current-layer="g43"><sodipodi:guide
       position="47.290755,179.17127"
       orientation="0,-1"
       id="guide3"
       inkscape:locked="false" /><sodipodi:guide
       position="106.57018,238.4507"
       orientation="1,0"
       id="guide4"
       inkscape:locked="false" /></sodipodi:namedview><defs
     id="defs1" /><g
     inkscape:label="Warstwa 1"
     inkscape:groupmode="layer"
     id="layer1"
     transform="translate(-28.667288,-0.1272778)"><g
       id="g9"
       transform="translate(-49.537445,-60.796001)"><g
         id="g10"><rect
           style="fill:none;stroke:none;stroke-width:0.254555"
           id="rect1"
           width="114.06548"
           height="114.06548"
           x="78.204735"
           y="60.923279" /><g
           id="g6"
           style="fill:#000000;fill-opacity:1"><path
             id="path1"
             style="fill:#000000;fill-opacity:1"
             d="m 134.36698,65.586603 c -3.02878,4.16e-4 -6.05793,0.171293 -7.63623,0.511597 -5.68428,1.225613 -10.91764,3.498546 -13.44776,5.840987 -3.70067,3.426177 -4.39533,7.581845 -1.67276,10.004041 2.60408,2.316781 6.38449,1.915568 11.95947,-1.268657 4.18587,-2.390813 7.15098,-3.339295 11.9662,-3.827673 8.16924,-0.828559 16.12546,2.119066 20.70881,7.6724 1.44582,1.751788 2.86537,3.94248 2.67684,4.13101 -0.056,0.056 -0.68098,-0.07282 -1.38854,-0.28577 -1.66515,-0.50111 -4.90135,-0.49444 -6.90139,0.01396 -5.30112,1.34752 -9.14435,4.70806 -12.53825,10.96367 -0.74633,1.375632 -1.56165,2.727572 -1.81178,3.003952 -1.23822,1.36822 -3.25723,1.63392 -4.49585,0.59169 -1.45358,-1.2231 -2.45798,-4.372292 -3.50676,-10.991572 -0.62393,-3.93791 -1.93193,-6.614587 -3.23185,-6.614587 -1.32509,0 -3.4819,2.093967 -4.75113,4.612117 -0.29847,0.59216 -0.57686,1.11532 -0.61856,1.16272 -0.0417,0.04743 -1.36645,-0.11711 -2.94401,-0.36586 -2.17957,-0.34368 -3.77234,-0.41637 -6.63319,-0.30231 l -3.76463,0.14986 -0.28525,-1.10691 c -0.51021,-1.98207 -0.84621,-2.938151 -1.46968,-4.18269 -0.95868,-1.913635 -1.72658,-2.024548 -3.39204,-0.489375 -2.023698,1.865375 -3.978045,6.379385 -5.227074,12.074195 -0.767054,3.497322 -0.83699,10.935052 -0.136426,14.509712 1.561549,7.96782 5.21443,14.92848 10.76369,20.50986 6.04819,6.08321 13.21284,9.85937 21.29896,11.22567 2.90503,0.49088 9.7442,0.50246 12.70827,0.0217 2.5745,-0.41758 5.06608,-1.08941 7.45019,-1.9849 l 14.95981,25.91005 a 6.5,6.5 0 0 0 8.87904,2.37918 6.5,6.5 0 0 0 2.37867,-8.87904 l -14.97635,-25.93899 c 6.82742,-5.65817 11.71549,-13.58221 13.46843,-22.62497 4.08018,-21.048122 -9.50763,-41.332756 -30.75626,-45.915547 -1.57587,-0.339865 -4.60384,-0.509945 -7.63261,-0.50953 z m -28.80031,33.617585 c 0.12182,-0.0012 0.23247,0.0097 0.32556,0.03307 1.73047,0.43432 2.42375,2.754382 1.18649,3.971342 -0.84635,0.83246 -1.77571,0.9934 -2.79311,0.48421 -1.73228,-0.86701 -1.69533,-3.35784 0.0625,-4.192002 0.38766,-0.18397 0.85306,-0.29312 1.21853,-0.29662 z m 12.66383,0.15038 c 1.05751,0 2.38125,1.246162 2.38125,2.241722 0,0.8806 -0.64321,2.14202 -1.202,2.35645 -1.7627,0.67641 -3.5605,-0.3802 -3.5605,-2.0929 0,-1.26555 1.17833,-2.505272 2.38125,-2.505272 z" /><g
             id="path4"
             style="fill:#000000;fill-opacity:1"><path
               style="color:#000000;fill:#000000;fill-opacity:1;stroke-linecap:round;stroke-linejoin:round;-inkscape-stroke:none"
               d="m 142.83246,131.11091 26.63001,46.12454"
               id="path8" /></g></g></g></g></g></svg>
